<svg width="32" height="32" viewBox="0 0 32 32" fill="none" xmlns="http://www.w3.org/2000/svg">
<rect width="32" height="32" rx="4" fill="#20283F"/>
<rect x="7.98713" y="11.6806" width="16.1419" height="13.9869" stroke="#0085FF" stroke-width="0.665173"/>
<path d="M21.0736 16.6959C21.0736 17.3546 20.9438 18.0067 20.6918 18.6152C20.4397 19.2237 20.0703 19.7766 19.6046 20.2423C19.1389 20.7081 18.586 21.0775 17.9775 21.3295C17.369 21.5816 16.7168 21.7113 16.0582 21.7113C15.3995 21.7113 14.7474 21.5816 14.1389 21.3295C13.5304 21.0775 12.9775 20.7081 12.5118 20.2423C12.046 19.7766 11.6766 19.2237 11.4246 18.6152C11.1725 18.0067 11.0428 17.3546 11.0428 16.6959" stroke="#0085FF" stroke-width="0.665173"/>
<path d="M21.0736 11.348C21.0736 10.6893 20.9438 10.0372 20.6918 9.42866C20.4397 8.82017 20.0703 8.26728 19.6046 7.80155C19.1389 7.33583 18.586 6.9664 17.9775 6.71436C17.369 6.46231 16.7168 6.33258 16.0582 6.33258C15.3995 6.33258 14.7474 6.46231 14.1389 6.71436C13.5304 6.9664 12.9775 7.33583 12.5118 7.80155C12.046 8.26728 11.6766 8.82017 11.4246 9.42866C11.1725 10.0372 11.0428 10.6893 11.0428 11.348" stroke="#0085FF" stroke-width="0.665173"/>
</svg>
