<svg width="29" height="42" viewBox="0 0 29 42" fill="none" xmlns="http://www.w3.org/2000/svg">
<path fill-rule="evenodd" clip-rule="evenodd" d="M14.2212 0.066709L14.2267 0.0666924C15.8744 0.0716299 17.4532 0.728356 18.6183 1.89346C19.7834 3.05856 20.4402 4.63736 20.4451 6.28506L20.4451 6.28784L20.4451 9.32052H27.4392C27.9547 9.32052 28.3725 9.73836 28.3725 10.2538V40.659C28.3725 41.1744 27.9547 41.5923 27.4392 41.5923H0.999931C0.752377 41.5923 0.514965 41.4939 0.339936 41.3189C0.164906 41.1438 0.0666008 40.9064 0.0666504 40.6588L0.0727346 10.3204C0.071184 10.2984 0.0703956 10.2762 0.0703956 10.2538C0.0703956 9.73836 0.48824 9.32052 1.00368 9.32052H8.0028V6.28506C8.00772 4.63736 8.66445 3.05856 9.82955 1.89346C10.9947 0.728356 12.5735 0.0716299 14.2212 0.066709ZM8.0028 11.1871V16.8636C8.0028 17.379 8.42064 17.7968 8.93608 17.7968C9.45152 17.7968 9.86936 17.379 9.86936 16.8636V11.1871H18.5785V16.8636C18.5785 17.379 18.9964 17.7968 19.5118 17.7968C20.0272 17.7968 20.4451 17.379 20.4451 16.8636V11.1871H26.506V39.7257H1.9334L1.93912 11.1871H8.0028ZM18.5785 9.32052H9.86936V6.28941C9.87313 5.13527 10.3333 4.02945 11.1494 3.21332C11.9652 2.39755 13.0704 1.93745 14.2239 1.93327C15.3775 1.93745 16.4827 2.39755 17.2985 3.21332C18.1146 4.02945 18.5748 5.13527 18.5785 6.28941V9.32052Z" fill="white"/>
</svg>
