<svg width="51" height="45" viewBox="0 0 51 45" fill="none" xmlns="http://www.w3.org/2000/svg">
<path d="M1 26.8393V31.8974C1 33.6803 2.4542 35.1345 4.23717 35.1345H7.47434M30.1345 35.1345V9.23717C30.1345 7.4542 28.6803 6 26.8974 6H22.0416M36.7606 35.1345H13.9487" stroke="#0085FF" stroke-width="1.6" stroke-miterlimit="10"/>
<path d="M30.074 15.7119H41.2623C42.3372 15.7119 43.3614 16.2557 43.9558 17.1535L49.0012 24.6015C49.3679 25.1326 49.5449 25.7648 49.5449 26.4098V31.8978C49.5449 33.6807 48.1034 35.1349 46.3078 35.1349H43.2476M10.7115 31.8978C8.92856 31.8978 7.47437 33.352 7.47437 35.1349C7.47437 36.9179 8.92856 38.3721 10.7115 38.3721C12.4945 38.3721 13.9487 36.9179 13.9487 35.1349C13.9487 33.352 12.4945 31.8978 10.7115 31.8978Z" stroke="#0085FF" stroke-width="1.6" stroke-miterlimit="10"/>
<path d="M39.7574 31.8975C37.9618 31.8975 36.5203 33.3517 36.5203 35.1346C36.5203 36.9176 37.9618 38.3718 39.7574 38.3718C41.5404 38.3718 42.9946 36.9176 42.9946 35.1346C42.9946 33.3517 41.5404 31.8975 39.7574 31.8975Z" stroke="#0085FF" stroke-width="1.6" stroke-miterlimit="10"/>
<path d="M10.7115 6C5.34995 6 1 10.3499 1 15.7115C1 21.0731 5.34995 25.423 10.7115 25.423C16.0731 25.423 20.423 21.0731 20.423 15.7115C20.423 10.3499 16.0731 6 10.7115 6Z" stroke="#0085FF" stroke-width="1.6" stroke-miterlimit="10" stroke-linecap="square"/>
<path d="M10.7114 12.4746V15.7118H13.9486" stroke="#0085FF" stroke-width="1.6" stroke-miterlimit="10" stroke-linecap="square"/>
</svg>
