<svg width="51" height="45" viewBox="0 0 51 45" fill="none" xmlns="http://www.w3.org/2000/svg">
<path d="M37.4004 13.9277H40.7095C42.5321 13.9277 44.0187 15.4143 44.0187 17.2369V37.0917C44.0187 38.9143 42.5321 40.4008 40.7095 40.4008H10.9273C9.10469 40.4008 7.61816 38.9143 7.61816 37.0917V30.4734" stroke="#0085FF" stroke-width="1.6" stroke-miterlimit="10"/>
<path d="M37.4005 20.5457H44.0188M34.0914 30.4731H4.30914C2.48653 30.4731 1 28.9866 1 27.1639V7.30914C1 5.48653 2.48653 4 4.30914 4H34.0914C35.914 4 37.4005 5.48653 37.4005 7.30914V27.1639C37.4005 28.9866 35.914 30.4731 34.0914 30.4731ZM1 10.6183H37.4005H1Z" stroke="#0085FF" stroke-width="1.6" stroke-miterlimit="10"/>
</svg>
