<svg width="191" height="34" viewBox="0 0 191 34" fill="none" xmlns="http://www.w3.org/2000/svg">
<rect x="3.80273" y="10.0586" width="26.4701" height="22.8196" stroke="#0085FF" stroke-width="2"/>
<path d="M25.097 18.1177C25.097 19.176 24.8885 20.224 24.4835 21.2018C24.0785 22.1796 23.4849 23.068 22.7365 23.8164C21.9882 24.5647 21.0997 25.1584 20.122 25.5634C19.1442 25.9684 18.0962 26.1768 17.0379 26.1768C15.9795 26.1768 14.9316 25.9684 13.9538 25.5634C12.976 25.1584 12.0876 24.5647 11.3392 23.8164C10.5909 23.068 9.99723 22.1796 9.59222 21.2018C9.18721 20.224 8.97876 19.176 8.97876 18.1177" stroke="#0085FF" stroke-width="2"/>
<path d="M25.097 9.06002C25.097 8.00168 24.8885 6.95371 24.4835 5.97593C24.0785 4.99816 23.4849 4.10972 22.7365 3.36137C21.9882 2.61301 21.0997 2.01938 20.122 1.61437C19.1442 1.20936 18.0962 1.00091 17.0379 1.00091C15.9795 1.00091 14.9316 1.20936 13.9538 1.61437C12.976 2.01938 12.0876 2.61301 11.3392 3.36137C10.5909 4.10973 9.99723 4.99816 9.59222 5.97593C9.18721 6.95371 8.97876 8.00169 8.97876 9.06002" stroke="#0085FF" stroke-width="2"/>
<path d="M50.3471 27.3268C49.0393 27.3268 47.8562 27.1031 46.7979 26.6557C45.7396 26.2083 44.8663 25.5673 44.178 24.7327C43.4982 23.8981 43.0551 22.9172 42.8486 21.7901L45.2234 21.4158C45.4213 22.1902 45.7654 22.857 46.2559 23.4163C46.7549 23.9755 47.3658 24.4057 48.0885 24.7069C48.8113 24.9994 49.6029 25.1457 50.4633 25.1457C51.2979 25.1457 52.055 25.0123 52.7348 24.7456C53.4145 24.4789 53.948 24.1003 54.3351 23.6099C54.7309 23.1194 54.9288 22.5429 54.9288 21.8804C54.9288 21.1405 54.6922 20.5597 54.219 20.1381C53.7458 19.7165 53.1177 19.3895 52.3347 19.1572L47.5981 17.7505C46.3935 17.3977 45.4213 16.8642 44.6813 16.1501C43.9414 15.4359 43.5714 14.4508 43.5714 13.1946C43.5714 12.1277 43.851 11.2027 44.4103 10.4197C44.9695 9.62816 45.7396 9.02587 46.7205 8.61287C47.7014 8.19127 48.807 7.98047 50.0374 7.98047C51.2764 7.98047 52.3949 8.19987 53.393 8.63868C54.3911 9.06889 55.2171 9.69269 55.871 10.5101C56.5249 11.3189 56.9637 12.2868 57.1874 13.414L54.7481 13.8399C54.6191 13.0999 54.3308 12.4503 53.8834 11.891C53.436 11.3318 52.8724 10.9059 52.1927 10.6133C51.5216 10.3122 50.7859 10.1616 49.9858 10.1616C49.2372 10.1616 48.5575 10.2907 47.9466 10.5488C47.3443 10.7983 46.8668 11.1468 46.514 11.5942C46.1698 12.033 45.9977 12.5321 45.9977 13.0913C45.9977 13.6248 46.1483 14.0679 46.4495 14.4207C46.7506 14.7734 47.1163 15.0488 47.5465 15.2467C47.9853 15.4445 48.5015 15.6252 49.0952 15.7887L52.6315 16.8083C53.4317 17.032 54.1545 17.303 54.7998 17.6214C55.4537 17.9311 56.0345 18.4259 56.5421 19.1056C57.0497 19.7767 57.3036 20.6586 57.3036 21.7514C57.3036 22.9129 56.9981 23.9153 56.3872 24.7585C55.7763 25.6017 54.9417 26.2427 53.8834 26.6815C52.8337 27.1117 51.655 27.3268 50.3471 27.3268Z" fill="white"/>
<path d="M63.5858 14.8982V21.5707V22.3192C63.5858 22.7581 63.6031 23.1108 63.6375 23.3775C63.6719 23.6443 63.7493 23.8766 63.8698 24.0745C64.0763 24.4445 64.3688 24.7112 64.7474 24.8747C65.1346 25.0381 65.6078 25.1199 66.1671 25.1199C66.5715 25.1199 67.1135 25.0683 67.7933 24.965V26.9397C67.0791 27.0859 66.3908 27.1591 65.7283 27.1591C64.8076 27.1591 63.9988 27.0085 63.3019 26.7073C62.6136 26.3976 62.1016 25.9158 61.7661 25.2619C61.5682 24.8747 61.4391 24.4789 61.3789 24.0745C61.3187 23.6701 61.2885 23.1667 61.2885 22.5645V21.6739V14.8982H58.4621V13.001H61.2885V9.12912H63.5858V13.001H67.7933V14.8982H63.5858Z" fill="white"/>
<path d="M75.9802 27.3268C74.6122 27.3268 73.4205 27.0171 72.4052 26.3976C71.3985 25.7695 70.6242 24.9005 70.0821 23.7905C69.54 22.672 69.269 21.3943 69.269 19.9574C69.269 18.5119 69.5443 17.2342 70.095 16.1243C70.6457 15.0143 71.4286 14.1539 72.4439 13.543C73.4592 12.9235 74.638 12.6138 75.9802 12.6138C77.3483 12.6138 78.5399 12.9235 79.5552 13.543C80.5705 14.1625 81.3492 15.0272 81.8913 16.1372C82.4333 17.2471 82.7043 18.5205 82.7043 19.9574C82.7043 21.4115 82.429 22.6978 81.8783 23.8164C81.3363 24.9263 80.5576 25.791 79.5423 26.4105C78.527 27.0214 77.3397 27.3268 75.9802 27.3268ZM75.9802 25.1457C77.3827 25.1457 78.4453 24.6811 79.168 23.7518C79.8994 22.814 80.2651 21.5492 80.2651 19.9574C80.2651 18.3484 79.8994 17.0879 79.168 16.1759C78.4367 15.2553 77.3741 14.7949 75.9802 14.7949C74.5691 14.7949 73.5022 15.2596 72.7795 16.1888C72.0653 17.118 71.7083 18.3743 71.7083 19.9574C71.7083 21.5664 72.0739 22.8355 72.8053 23.7647C73.5453 24.6854 74.6036 25.1457 75.9802 25.1457Z" fill="white"/>
<path d="M88.7854 13.8528C89.1726 13.543 89.6286 13.3064 90.1534 13.1429C90.6783 12.9795 91.2074 12.8977 91.7409 12.8977C92.0764 12.8977 92.4077 12.9321 92.7347 13.001V15.1563C92.3733 15.0703 92.0248 15.0272 91.6893 15.0272C90.8547 15.0272 90.1405 15.2467 89.5468 15.6855C88.9187 16.1329 88.4799 16.7223 88.2304 17.4536C87.9809 18.1764 87.8561 19.0067 87.8561 19.9445V26.9397H85.5459V13.001H87.598V15.2079C87.925 14.6401 88.3207 14.1883 88.7854 13.8528Z" fill="white"/>
<path d="M96.6138 20.6156C96.7084 22.0697 97.1171 23.1883 97.8399 23.9712C98.5712 24.7542 99.5779 25.1457 100.86 25.1457C101.772 25.1457 102.568 24.9349 103.248 24.5133C103.936 24.0917 104.474 23.4851 104.861 22.6935L107.068 23.455C106.526 24.6768 105.713 25.6275 104.629 26.3073C103.544 26.987 102.323 27.3268 100.963 27.3268C99.6037 27.3268 98.4077 27.0257 97.3752 26.4234C96.3514 25.8211 95.5555 24.9693 94.9876 23.868C94.4283 22.7667 94.1487 21.4975 94.1487 20.0607C94.1487 18.5549 94.424 17.2428 94.9747 16.1243C95.534 14.9971 96.3169 14.1324 97.3236 13.5301C98.3389 12.9192 99.5177 12.6138 100.86 12.6138C102.194 12.6138 103.342 12.9149 104.306 13.5172C105.278 14.1109 106.022 14.967 106.539 16.0856C107.055 17.1955 107.313 18.5162 107.313 20.0478C107.313 20.2973 107.309 20.4866 107.3 20.6156H96.6138ZM100.937 14.6788C99.6898 14.6788 98.7046 15.0272 97.9818 15.7242C97.2591 16.4211 96.816 17.4364 96.6525 18.77H104.912C104.629 16.0425 103.303 14.6788 100.937 14.6788Z" fill="white"/>
<path d="M114.548 26.9397H112.638L108.379 12.9881L110.663 13.001L113.774 23.1969L116.91 13.001H118.936L122.059 23.1969L125.183 13.001H127.454L123.195 26.9397H121.285L117.916 16.3437L114.548 26.9397Z" fill="white"/>
<path d="M139.716 15.337C139.896 15.7328 140.017 16.1716 140.077 16.6534C140.137 17.1267 140.167 17.6816 140.167 18.3183V26.9397H138.128V24.7714C137.018 26.475 135.297 27.3268 132.966 27.3268C131.959 27.3268 131.099 27.1419 130.384 26.7719C129.67 26.3933 129.133 25.89 128.771 25.2619C128.41 24.6337 128.229 23.9368 128.229 23.171C128.229 21.1147 129.369 19.7509 131.649 19.0798C132.32 18.8991 133.09 18.7399 133.959 18.6023C134.828 18.4646 135.87 18.314 137.083 18.1505L137.909 18.0344C137.874 16.9072 137.59 16.0813 137.057 15.5564C136.523 15.0229 135.663 14.7562 134.476 14.7562C133.598 14.7562 132.845 14.9584 132.217 15.3628C131.598 15.7586 131.167 16.3695 130.926 17.1955L128.745 16.5373C129.081 15.2897 129.735 14.326 130.707 13.6463C131.688 12.958 132.953 12.6138 134.501 12.6138C135.784 12.6138 136.872 12.8461 137.767 13.3107C138.67 13.7667 139.32 14.4422 139.716 15.337ZM133.314 25.4038C134.114 25.4038 134.82 25.2619 135.431 24.9779C136.042 24.6854 136.536 24.2982 136.915 23.8164C137.294 23.3259 137.539 22.7839 137.651 22.1902C137.737 21.8976 137.793 21.5707 137.818 21.2093C137.853 20.8479 137.874 20.4435 137.883 19.9961L137.251 20.0736C136.037 20.237 135.104 20.3704 134.45 20.4737C133.805 20.5769 133.215 20.706 132.682 20.8608C132.019 21.0673 131.49 21.3513 131.094 21.7127C130.707 22.074 130.513 22.5559 130.513 23.1581C130.513 23.5625 130.612 23.9368 130.81 24.281C131.008 24.6165 131.318 24.8876 131.74 25.0941C132.161 25.3006 132.686 25.4038 133.314 25.4038Z" fill="white"/>
<path d="M149.136 26.9397H146.787L141.728 13.001H144.051L147.962 24.01L151.86 13.001H154.196L149.136 26.9397Z" fill="white"/>
<path d="M157.716 20.6156C157.811 22.0697 158.22 23.1883 158.943 23.9712C159.674 24.7542 160.681 25.1457 161.963 25.1457C162.875 25.1457 163.671 24.9349 164.35 24.5133C165.039 24.0917 165.576 23.4851 165.964 22.6935L168.171 23.455C167.628 24.6768 166.815 25.6275 165.731 26.3073C164.647 26.987 163.425 27.3268 162.066 27.3268C160.706 27.3268 159.51 27.0257 158.478 26.4234C157.454 25.8211 156.658 24.9693 156.09 23.868C155.531 22.7667 155.251 21.4975 155.251 20.0607C155.251 18.5549 155.527 17.2428 156.077 16.1243C156.637 14.9971 157.42 14.1324 158.426 13.5301C159.442 12.9192 160.62 12.6138 161.963 12.6138C163.296 12.6138 164.445 12.9149 165.409 13.5172C166.381 14.1109 167.125 14.967 167.641 16.0856C168.158 17.1955 168.416 18.5162 168.416 20.0478C168.416 20.2973 168.411 20.4866 168.403 20.6156H157.716ZM162.04 14.6788C160.792 14.6788 159.807 15.0272 159.085 15.7242C158.362 16.4211 157.919 17.4364 157.755 18.77H166.015C165.731 16.0425 164.406 14.6788 162.04 14.6788Z" fill="white"/>
<path d="M177.709 26.9397H174.895L181.284 17.531L175.063 8.35475H177.863L182.677 15.5951L187.479 8.35475H190.292L184.071 17.531L190.447 26.9397H187.646L182.677 19.4799L177.709 26.9397Z" fill="white"/>
</svg>
