<svg width="21" height="21" viewBox="0 0 21 21" fill="none" xmlns="http://www.w3.org/2000/svg">
<path d="M6.5 8.1875V18.875C6.5 19.0242 6.55926 19.1673 6.66475 19.2727C6.77024 19.3782 6.91332 19.4375 7.0625 19.4375H14.9375C15.0867 19.4375 15.2298 19.3782 15.3352 19.2727C15.4407 19.1673 15.5 19.0242 15.5 18.875V8.1875" stroke="#0085FF" stroke-linecap="round" stroke-linejoin="round"/>
<path d="M15.5 11.5625H18.3125C18.4617 11.5625 18.6048 11.5032 18.7102 11.3977C18.8157 11.2923 18.875 11.1492 18.875 11V7.0625C18.875 5.86903 18.4009 4.72443 17.557 3.88052C16.7131 3.03661 15.5685 2.5625 14.375 2.5625H13.25C13.25 3.15924 13.0129 3.73153 12.591 4.15349C12.169 4.57545 11.5967 4.8125 11 4.8125C10.4033 4.8125 9.83097 4.57545 9.40901 4.15349C8.98705 3.73153 8.75 3.15924 8.75 2.5625H7.625C6.43153 2.5625 5.28693 3.03661 4.44302 3.88052C3.59911 4.72443 3.125 5.86903 3.125 7.0625V11C3.125 11.1492 3.18426 11.2923 3.28975 11.3977C3.39524 11.5032 3.53832 11.5625 3.6875 11.5625H6.5" stroke="#0085FF" stroke-linecap="round" stroke-linejoin="round"/>
</svg>
