<?xml version="1.0" encoding="UTF-8"?>
<svg xmlns="http://www.w3.org/2000/svg" xmlns:xlink="http://www.w3.org/1999/xlink" width="150px" height="150px" viewBox="0 0 150 150" version="1.1">
<g id="surface104784">
<path style=" stroke:none;fill-rule:nonzero;fill:rgb(100%,100%,100%);fill-opacity:1;" d="M 35.625 13.125 L 35.625 20.625 L 33.75 20.625 L 33.75 24.375 L 31.875 24.375 C 27.753906 24.375 24.375 27.753906 24.375 31.875 L 24.375 33.75 L 20.625 33.75 L 20.625 35.625 L 13.125 35.625 L 13.125 39.375 L 20.625 39.375 L 20.625 41.25 L 24.375 41.25 L 24.375 48.75 L 20.625 48.75 L 20.625 50.625 L 13.125 50.625 L 13.125 54.375 L 20.625 54.375 L 20.625 56.25 L 24.375 56.25 L 24.375 63.75 L 20.625 63.75 L 20.625 65.625 L 13.125 65.625 L 13.125 69.375 L 20.625 69.375 L 20.625 71.25 L 24.375 71.25 L 24.375 78.75 L 20.625 78.75 L 20.625 80.625 L 13.125 80.625 L 13.125 84.375 L 20.625 84.375 L 20.625 86.25 L 24.375 86.25 L 24.375 93.75 L 20.625 93.75 L 20.625 95.625 L 13.125 95.625 L 13.125 99.375 L 20.625 99.375 L 20.625 101.25 L 24.375 101.25 L 24.375 108.75 L 20.625 108.75 L 20.625 110.625 L 13.125 110.625 L 13.125 114.375 L 20.625 114.375 L 20.625 116.25 L 24.375 116.25 L 24.375 118.125 C 24.375 122.246094 27.753906 125.625 31.875 125.625 L 33.75 125.625 L 33.75 129.375 L 35.625 129.375 L 35.625 136.875 L 39.375 136.875 L 39.375 129.375 L 41.25 129.375 L 41.25 125.625 L 48.75 125.625 L 48.75 129.375 L 50.625 129.375 L 50.625 136.875 L 54.375 136.875 L 54.375 129.375 L 56.25 129.375 L 56.25 125.625 L 63.75 125.625 L 63.75 129.375 L 65.625 129.375 L 65.625 136.875 L 69.375 136.875 L 69.375 129.375 L 71.25 129.375 L 71.25 125.625 L 78.75 125.625 L 78.75 129.375 L 80.625 129.375 L 80.625 136.875 L 84.375 136.875 L 84.375 129.375 L 86.25 129.375 L 86.25 125.625 L 93.75 125.625 L 93.75 129.375 L 95.625 129.375 L 95.625 136.875 L 99.375 136.875 L 99.375 129.375 L 101.25 129.375 L 101.25 125.625 L 108.75 125.625 L 108.75 129.375 L 110.625 129.375 L 110.625 136.875 L 114.375 136.875 L 114.375 129.375 L 116.25 129.375 L 116.25 125.625 L 118.125 125.625 C 122.246094 125.625 125.625 122.246094 125.625 118.125 L 125.625 116.25 L 129.375 116.25 L 129.375 114.375 L 136.875 114.375 L 136.875 110.625 L 129.375 110.625 L 129.375 108.75 L 125.625 108.75 L 125.625 101.25 L 129.375 101.25 L 129.375 99.375 L 136.875 99.375 L 136.875 95.625 L 129.375 95.625 L 129.375 93.75 L 125.625 93.75 L 125.625 86.25 L 129.375 86.25 L 129.375 84.375 L 136.875 84.375 L 136.875 80.625 L 129.375 80.625 L 129.375 78.75 L 125.625 78.75 L 125.625 71.25 L 129.375 71.25 L 129.375 69.375 L 136.875 69.375 L 136.875 65.625 L 129.375 65.625 L 129.375 63.75 L 125.625 63.75 L 125.625 56.25 L 129.375 56.25 L 129.375 54.375 L 136.875 54.375 L 136.875 50.625 L 129.375 50.625 L 129.375 48.75 L 125.625 48.75 L 125.625 41.25 L 129.375 41.25 L 129.375 39.375 L 136.875 39.375 L 136.875 35.625 L 129.375 35.625 L 129.375 33.75 L 125.625 33.75 L 125.625 31.875 C 125.625 27.753906 122.246094 24.375 118.125 24.375 L 116.25 24.375 L 116.25 20.625 L 114.375 20.625 L 114.375 13.125 L 110.625 13.125 L 110.625 20.625 L 108.75 20.625 L 108.75 24.375 L 101.25 24.375 L 101.25 20.625 L 99.375 20.625 L 99.375 13.125 L 95.625 13.125 L 95.625 20.625 L 93.75 20.625 L 93.75 24.375 L 86.25 24.375 L 86.25 20.625 L 84.375 20.625 L 84.375 13.125 L 80.625 13.125 L 80.625 20.625 L 78.75 20.625 L 78.75 24.375 L 71.25 24.375 L 71.25 20.625 L 69.375 20.625 L 69.375 13.125 L 65.625 13.125 L 65.625 20.625 L 63.75 20.625 L 63.75 24.375 L 56.25 24.375 L 56.25 20.625 L 54.375 20.625 L 54.375 13.125 L 50.625 13.125 L 50.625 20.625 L 48.75 20.625 L 48.75 24.375 L 41.25 24.375 L 41.25 20.625 L 39.375 20.625 L 39.375 13.125 Z M 31.875 28.125 L 118.125 28.125 C 120.21875 28.125 121.875 29.78125 121.875 31.875 L 121.875 118.125 C 121.875 120.21875 120.21875 121.875 118.125 121.875 L 31.875 121.875 C 29.78125 121.875 28.125 120.21875 28.125 118.125 L 28.125 31.875 C 28.125 29.78125 29.78125 28.125 31.875 28.125 Z M 43.125 39.375 C 41.054688 39.375 39.375 41.054688 39.375 43.125 C 39.375 45.195312 41.054688 46.875 43.125 46.875 C 45.195312 46.875 46.875 45.195312 46.875 43.125 C 46.875 41.054688 45.195312 39.375 43.125 39.375 Z M 56.25 39.375 C 55.214844 39.375 54.375 40.214844 54.375 41.25 C 54.375 42.285156 55.214844 43.125 56.25 43.125 C 57.285156 43.125 58.125 42.285156 58.125 41.25 C 58.125 40.214844 57.285156 39.375 56.25 39.375 Z M 63.75 39.375 C 62.714844 39.375 61.875 40.214844 61.875 41.25 C 61.875 42.285156 62.714844 43.125 63.75 43.125 C 64.785156 43.125 65.625 42.285156 65.625 41.25 C 65.625 40.214844 64.785156 39.375 63.75 39.375 Z M 71.25 39.375 C 70.214844 39.375 69.375 40.214844 69.375 41.25 C 69.375 42.285156 70.214844 43.125 71.25 43.125 C 72.285156 43.125 73.125 42.285156 73.125 41.25 C 73.125 40.214844 72.285156 39.375 71.25 39.375 Z M 78.75 39.375 C 77.714844 39.375 76.875 40.214844 76.875 41.25 C 76.875 42.285156 77.714844 43.125 78.75 43.125 C 79.785156 43.125 80.625 42.285156 80.625 41.25 C 80.625 40.214844 79.785156 39.375 78.75 39.375 Z M 86.25 39.375 C 85.214844 39.375 84.375 40.214844 84.375 41.25 C 84.375 42.285156 85.214844 43.125 86.25 43.125 C 87.285156 43.125 88.125 42.285156 88.125 41.25 C 88.125 40.214844 87.285156 39.375 86.25 39.375 Z M 93.75 39.375 C 92.714844 39.375 91.875 40.214844 91.875 41.25 C 91.875 42.285156 92.714844 43.125 93.75 43.125 C 94.785156 43.125 95.625 42.285156 95.625 41.25 C 95.625 40.214844 94.785156 39.375 93.75 39.375 Z M 101.25 39.375 C 100.214844 39.375 99.375 40.214844 99.375 41.25 C 99.375 42.285156 100.214844 43.125 101.25 43.125 C 102.285156 43.125 103.125 42.285156 103.125 41.25 C 103.125 40.214844 102.285156 39.375 101.25 39.375 Z M 108.75 39.375 C 107.714844 39.375 106.875 40.214844 106.875 41.25 C 106.875 42.285156 107.714844 43.125 108.75 43.125 C 109.785156 43.125 110.625 42.285156 110.625 41.25 C 110.625 40.214844 109.785156 39.375 108.75 39.375 Z M 108.75 46.875 C 107.714844 46.875 106.875 47.714844 106.875 48.75 C 106.875 49.785156 107.714844 50.625 108.75 50.625 C 109.785156 50.625 110.625 49.785156 110.625 48.75 C 110.625 47.714844 109.785156 46.875 108.75 46.875 Z M 41.25 54.375 C 40.214844 54.375 39.375 55.214844 39.375 56.25 C 39.375 57.285156 40.214844 58.125 41.25 58.125 C 42.285156 58.125 43.125 57.285156 43.125 56.25 C 43.125 55.214844 42.285156 54.375 41.25 54.375 Z M 108.75 54.375 C 107.714844 54.375 106.875 55.214844 106.875 56.25 C 106.875 57.285156 107.714844 58.125 108.75 58.125 C 109.785156 58.125 110.625 57.285156 110.625 56.25 C 110.625 55.214844 109.785156 54.375 108.75 54.375 Z M 41.25 61.875 C 40.214844 61.875 39.375 62.714844 39.375 63.75 C 39.375 64.785156 40.214844 65.625 41.25 65.625 C 42.285156 65.625 43.125 64.785156 43.125 63.75 C 43.125 62.714844 42.285156 61.875 41.25 61.875 Z M 108.75 61.875 C 107.714844 61.875 106.875 62.714844 106.875 63.75 C 106.875 64.785156 107.714844 65.625 108.75 65.625 C 109.785156 65.625 110.625 64.785156 110.625 63.75 C 110.625 62.714844 109.785156 61.875 108.75 61.875 Z M 41.25 69.375 C 40.214844 69.375 39.375 70.214844 39.375 71.25 C 39.375 72.285156 40.214844 73.125 41.25 73.125 C 42.285156 73.125 43.125 72.285156 43.125 71.25 C 43.125 70.214844 42.285156 69.375 41.25 69.375 Z M 108.75 69.375 C 107.714844 69.375 106.875 70.214844 106.875 71.25 C 106.875 72.285156 107.714844 73.125 108.75 73.125 C 109.785156 73.125 110.625 72.285156 110.625 71.25 C 110.625 70.214844 109.785156 69.375 108.75 69.375 Z M 41.25 76.875 C 40.214844 76.875 39.375 77.714844 39.375 78.75 C 39.375 79.785156 40.214844 80.625 41.25 80.625 C 42.285156 80.625 43.125 79.785156 43.125 78.75 C 43.125 77.714844 42.285156 76.875 41.25 76.875 Z M 108.75 76.875 C 107.714844 76.875 106.875 77.714844 106.875 78.75 C 106.875 79.785156 107.714844 80.625 108.75 80.625 C 109.785156 80.625 110.625 79.785156 110.625 78.75 C 110.625 77.714844 109.785156 76.875 108.75 76.875 Z M 41.25 84.375 C 40.214844 84.375 39.375 85.214844 39.375 86.25 C 39.375 87.285156 40.214844 88.125 41.25 88.125 C 42.285156 88.125 43.125 87.285156 43.125 86.25 C 43.125 85.214844 42.285156 84.375 41.25 84.375 Z M 108.75 84.375 C 107.714844 84.375 106.875 85.214844 106.875 86.25 C 106.875 87.285156 107.714844 88.125 108.75 88.125 C 109.785156 88.125 110.625 87.285156 110.625 86.25 C 110.625 85.214844 109.785156 84.375 108.75 84.375 Z M 41.25 91.875 C 40.214844 91.875 39.375 92.714844 39.375 93.75 C 39.375 94.785156 40.214844 95.625 41.25 95.625 C 42.285156 95.625 43.125 94.785156 43.125 93.75 C 43.125 92.714844 42.285156 91.875 41.25 91.875 Z M 108.75 91.875 C 107.714844 91.875 106.875 92.714844 106.875 93.75 C 106.875 94.785156 107.714844 95.625 108.75 95.625 C 109.785156 95.625 110.625 94.785156 110.625 93.75 C 110.625 92.714844 109.785156 91.875 108.75 91.875 Z M 41.25 99.375 C 40.214844 99.375 39.375 100.214844 39.375 101.25 C 39.375 102.285156 40.214844 103.125 41.25 103.125 C 42.285156 103.125 43.125 102.285156 43.125 101.25 C 43.125 100.214844 42.285156 99.375 41.25 99.375 Z M 106.875 103.125 C 104.804688 103.125 103.125 104.804688 103.125 106.875 C 103.125 108.945312 104.804688 110.625 106.875 110.625 C 108.945312 110.625 110.625 108.945312 110.625 106.875 C 110.625 104.804688 108.945312 103.125 106.875 103.125 Z M 41.25 106.875 C 40.214844 106.875 39.375 107.714844 39.375 108.75 C 39.375 109.785156 40.214844 110.625 41.25 110.625 C 42.285156 110.625 43.125 109.785156 43.125 108.75 C 43.125 107.714844 42.285156 106.875 41.25 106.875 Z M 48.75 106.875 C 47.714844 106.875 46.875 107.714844 46.875 108.75 C 46.875 109.785156 47.714844 110.625 48.75 110.625 C 49.785156 110.625 50.625 109.785156 50.625 108.75 C 50.625 107.714844 49.785156 106.875 48.75 106.875 Z M 56.25 106.875 C 55.214844 106.875 54.375 107.714844 54.375 108.75 C 54.375 109.785156 55.214844 110.625 56.25 110.625 C 57.285156 110.625 58.125 109.785156 58.125 108.75 C 58.125 107.714844 57.285156 106.875 56.25 106.875 Z M 63.75 106.875 C 62.714844 106.875 61.875 107.714844 61.875 108.75 C 61.875 109.785156 62.714844 110.625 63.75 110.625 C 64.785156 110.625 65.625 109.785156 65.625 108.75 C 65.625 107.714844 64.785156 106.875 63.75 106.875 Z M 71.25 106.875 C 70.214844 106.875 69.375 107.714844 69.375 108.75 C 69.375 109.785156 70.214844 110.625 71.25 110.625 C 72.285156 110.625 73.125 109.785156 73.125 108.75 C 73.125 107.714844 72.285156 106.875 71.25 106.875 Z M 78.75 106.875 C 77.714844 106.875 76.875 107.714844 76.875 108.75 C 76.875 109.785156 77.714844 110.625 78.75 110.625 C 79.785156 110.625 80.625 109.785156 80.625 108.75 C 80.625 107.714844 79.785156 106.875 78.75 106.875 Z M 86.25 106.875 C 85.214844 106.875 84.375 107.714844 84.375 108.75 C 84.375 109.785156 85.214844 110.625 86.25 110.625 C 87.285156 110.625 88.125 109.785156 88.125 108.75 C 88.125 107.714844 87.285156 106.875 86.25 106.875 Z M 93.75 106.875 C 92.714844 106.875 91.875 107.714844 91.875 108.75 C 91.875 109.785156 92.714844 110.625 93.75 110.625 C 94.785156 110.625 95.625 109.785156 95.625 108.75 C 95.625 107.714844 94.785156 106.875 93.75 106.875 Z M 93.75 106.875 "/>
</g>
</svg>
