<?xml version="1.0" encoding="utf-8"?>
<!-- Generator: Adobe Illustrator 23.0.1, SVG Export Plug-In . SVG Version: 6.00 Build 0)  -->
<svg version="1.1" id="Layer_1" xmlns="http://www.w3.org/2000/svg" xmlns:xlink="http://www.w3.org/1999/xlink" x="0px" y="0px"
	 viewBox="0 0 324.89 316.28" style="enable-background:new 0 0 324.89 316.28;" xml:space="preserve">
<style type="text/css">
	.st0{opacity:0.12;fill:#FFFFFF;}
</style>
<path class="st0" d="M146.64,309.1L8.6,173.84c-8.85-8.67-8.85-22.73,0-31.41L146.64,7.18c8.85-8.67,23.2-8.67,32.05,0
	l138.04,135.26c8.85,8.67,8.85,22.73,0,31.41L178.69,309.1C169.84,317.77,155.49,317.77,146.64,309.1z"/>
<path class="st0" d="M148.58,290.84L27.24,171.94c-7.78-7.62-7.78-19.98,0-27.61L148.58,25.44c7.78-7.62,20.39-7.62,28.17,0
	L298.1,144.34c7.78,7.62,7.78,19.98,0,27.61L176.75,290.84C168.97,298.46,156.36,298.46,148.58,290.84z"/>
<path class="st0" d="M150.92,268.75L49.78,169.65c-6.49-6.35-6.49-16.66,0-23.01l101.15-99.11c6.49-6.35,17-6.35,23.48,0
	l101.15,99.11c6.49,6.35,6.49,16.66,0,23.01l-101.15,99.11C167.92,275.11,157.41,275.11,150.92,268.75z"/>
</svg>
