<?xml version="1.0" encoding="UTF-8"?>
<svg xmlns="http://www.w3.org/2000/svg" xmlns:xlink="http://www.w3.org/1999/xlink" width="150px" height="150px" viewBox="0 0 150 150" version="1.1">
<g id="surface104805">
<path style=" stroke:none;fill-rule:nonzero;fill:rgb(100%,100%,100%);fill-opacity:1;" d="M 9 24 C 8.203125 24 7.441406 24.316406 6.878906 24.878906 C 6.316406 25.441406 6 26.203125 6 27 L 6 78.796875 C 6.878906 78.292969 7.910156 78 9 78 L 12 78 L 12 30 L 138 30 L 138 132 L 90 132 L 90 135 C 90 136.089844 89.707031 137.121094 89.203125 138 L 141 138 C 141.796875 138 142.558594 137.683594 143.121094 137.121094 C 143.683594 136.558594 144 135.796875 144 135 L 144 27 C 144 26.203125 143.683594 25.441406 143.121094 24.878906 C 142.558594 24.316406 141.796875 24 141 24 Z M 108 39 C 106.921875 38.988281 105.914062 39.550781 105.363281 40.488281 C 104.824219 41.425781 104.824219 42.574219 105.363281 43.511719 C 105.914062 44.449219 106.921875 45.011719 108 45 L 118.757812 45 L 87.878906 75.878906 C 87.09375 76.628906 86.777344 77.753906 87.058594 78.796875 C 87.328125 79.851562 88.148438 80.671875 89.203125 80.941406 C 90.246094 81.222656 91.371094 80.90625 92.121094 80.121094 L 123 49.242188 L 123 60 C 122.988281 61.078125 123.550781 62.085938 124.488281 62.636719 C 125.425781 63.175781 126.574219 63.175781 127.511719 62.636719 C 128.449219 62.085938 129.011719 61.078125 129 60 L 129 39 Z M 9 84 C 7.347656 84 6 85.347656 6 87 L 6 135 C 6 136.652344 7.347656 138 9 138 L 81 138 C 82.652344 138 84 136.652344 84 135 L 84 87 C 84 85.347656 82.652344 84 81 84 Z M 12 90 L 78 90 L 78 132 L 12 132 Z M 12 90 "/>
</g>
</svg>
