<?xml version="1.0" encoding="UTF-8"?>
<svg xmlns="http://www.w3.org/2000/svg" xmlns:xlink="http://www.w3.org/1999/xlink" width="128px" height="128px" viewBox="0 0 128 128" version="1.1">
<g id="surface105252">
<path style=" stroke:none;fill-rule:nonzero;fill:rgb(100%,100%,100%);fill-opacity:1;" d="M 6 28 C 2.695312 28 0 30.695312 0 34 L 0 54 C 0 55.109375 0.890625 56 2 56 C 3.101562 56 4 56.898438 4 58 C 4 59.101562 3.101562 60 2 60 C 0.890625 60 0 60.890625 0 62 L 0 82 C 0 85.304688 2.695312 88 6 88 L 8 88 L 8 96 C 8 98.203125 9.796875 100 12 100 L 68 100 C 70.203125 100 72 98.203125 72 96 L 72 90 C 72 88.898438 72.898438 88 74 88 C 75.101562 88 76 88.898438 76 90 L 76 96 C 76 98.203125 77.796875 100 80 100 L 116 100 C 118.203125 100 120 98.203125 120 96 L 120 88 L 122 88 C 125.304688 88 128 85.304688 128 82 L 128 62 C 128 60.890625 127.109375 60 126 60 C 124.898438 60 124 59.101562 124 58 C 124 56.898438 124.898438 56 126 56 C 127.109375 56 128 55.109375 128 54 L 128 34 C 128 30.695312 125.304688 28 122 28 Z M 6 32 L 122 32 C 123.101562 32 124 32.898438 124 34 L 124 52.34375 C 121.671875 53.171875 120 55.390625 120 58 C 120 60.609375 121.671875 62.828125 124 63.65625 L 124 82 C 124 83.101562 123.101562 84 122 84 L 120 84 C 117.796875 84 116 85.796875 116 88 L 116 96 L 80 96 L 80 90 C 80 86.695312 77.304688 84 74 84 C 70.695312 84 68 86.695312 68 90 L 68 96 L 12 96 L 12 88 C 12 85.796875 10.203125 84 8 84 L 6 84 C 4.898438 84 4 83.101562 4 82 L 4 63.65625 C 6.328125 62.828125 8 60.609375 8 58 C 8 55.390625 6.328125 53.171875 4 52.34375 L 4 34 C 4 32.898438 4.898438 32 6 32 Z M 14 40 C 12.890625 40 12 40.890625 12 42 L 12 66 C 12 67.109375 12.890625 68 14 68 L 30 68 C 31.109375 68 32 67.109375 32 66 L 32 42 C 32 40.890625 31.109375 40 30 40 Z M 42 40 C 40.890625 40 40 40.890625 40 42 L 40 66 C 40 67.109375 40.890625 68 42 68 L 58 68 C 59.109375 68 60 67.109375 60 66 L 60 42 C 60 40.890625 59.109375 40 58 40 Z M 70 40 C 68.890625 40 68 40.890625 68 42 L 68 66 C 68 67.109375 68.890625 68 70 68 L 86 68 C 87.109375 68 88 67.109375 88 66 L 88 42 C 88 40.890625 87.109375 40 86 40 Z M 98 40 C 96.890625 40 96 40.890625 96 42 L 96 66 C 96 67.109375 96.890625 68 98 68 L 114 68 C 115.109375 68 116 67.109375 116 66 L 116 42 C 116 40.890625 115.109375 40 114 40 Z M 16 44 L 28 44 L 28 64 L 16 64 Z M 44 44 L 56 44 L 56 64 L 44 64 Z M 72 44 L 84 44 L 84 64 L 72 64 Z M 100 44 L 112 44 L 112 64 L 100 64 Z M 10 76 C 8.890625 76 8 76.890625 8 78 C 8 79.109375 8.890625 80 10 80 L 102 80 C 103.109375 80 104 79.109375 104 78 C 104 76.890625 103.109375 76 102 76 Z M 110 76 C 108.890625 76 108 76.890625 108 78 C 108 79.109375 108.890625 80 110 80 L 118 80 C 119.109375 80 120 79.109375 120 78 C 120 76.890625 119.109375 76 118 76 Z M 20 84 C 18.890625 84 18 84.890625 18 86 L 18 90 C 18 91.109375 18.890625 92 20 92 C 21.109375 92 22 91.109375 22 90 L 22 86 C 22 84.890625 21.109375 84 20 84 Z M 30 84 C 28.890625 84 28 84.890625 28 86 L 28 90 C 28 91.109375 28.890625 92 30 92 C 31.109375 92 32 91.109375 32 90 L 32 86 C 32 84.890625 31.109375 84 30 84 Z M 40 84 C 38.890625 84 38 84.890625 38 86 L 38 90 C 38 91.109375 38.890625 92 40 92 C 41.109375 92 42 91.109375 42 90 L 42 86 C 42 84.890625 41.109375 84 40 84 Z M 50 84 C 48.890625 84 48 84.890625 48 86 L 48 90 C 48 91.109375 48.890625 92 50 92 C 51.109375 92 52 91.109375 52 90 L 52 86 C 52 84.890625 51.109375 84 50 84 Z M 60 84 C 58.890625 84 58 84.890625 58 86 L 58 90 C 58 91.109375 58.890625 92 60 92 C 61.109375 92 62 91.109375 62 90 L 62 86 C 62 84.890625 61.109375 84 60 84 Z M 88 84 C 86.890625 84 86 84.890625 86 86 L 86 90 C 86 91.109375 86.890625 92 88 92 C 89.109375 92 90 91.109375 90 90 L 90 86 C 90 84.890625 89.109375 84 88 84 Z M 98 84 C 96.890625 84 96 84.890625 96 86 L 96 90 C 96 91.109375 96.890625 92 98 92 C 99.109375 92 100 91.109375 100 90 L 100 86 C 100 84.890625 99.109375 84 98 84 Z M 108 84 C 106.890625 84 106 84.890625 106 86 L 106 90 C 106 91.109375 106.890625 92 108 92 C 109.109375 92 110 91.109375 110 90 L 110 86 C 110 84.890625 109.109375 84 108 84 Z M 108 84 "/>
</g>
</svg>
