<?xml version="1.0" encoding="UTF-8"?>
<svg xmlns="http://www.w3.org/2000/svg" xmlns:xlink="http://www.w3.org/1999/xlink" width="96px" height="96px" viewBox="0 0 96 96" version="1.1">
<g id="surface135533">
<path style=" stroke:none;fill-rule:nonzero;fill:rgb(92.54902%,94.117647%,94.509804%);fill-opacity:1;" d="M 84 74 C 84 79.523438 79.523438 84 74 84 L 22 84 C 16.476562 84 12 79.523438 12 74 L 12 22 C 12 16.476562 16.476562 12 22 12 L 74 12 C 79.523438 12 84 16.476562 84 22 Z M 84 74 "/>
<path style=" stroke:none;fill-rule:nonzero;fill:rgb(53.333333%,62.352941%,69.411765%);fill-opacity:1;" d="M 20 36 L 20 22 C 20 20.898438 20.898438 20 22 20 L 36 20 L 36 12 L 22 12 C 16.476562 12 12 16.476562 12 22 L 12 36 Z M 60 20 L 74 20 C 75.101562 20 76 20.898438 76 22 L 76 36 L 84 36 L 84 22 C 84 16.476562 79.523438 12 74 12 L 60 12 Z M 76 60 L 76 74 C 76 75.101562 75.101562 76 74 76 L 60 76 L 60 84 L 74 84 C 79.523438 84 84 79.523438 84 74 L 84 60 Z M 36 76 L 22 76 C 20.898438 76 20 75.101562 20 74 L 20 60 L 12 60 L 12 74 C 12 79.523438 16.476562 84 22 84 L 36 84 Z M 36 76 "/>
</g>
</svg>
