<?xml version="1.0" encoding="utf-8"?>
<!-- Generator: Adobe Illustrator 23.0.1, SVG Export Plug-In . SVG Version: 6.00 Build 0)  -->
<svg version="1.1" id="Layer_1" xmlns="http://www.w3.org/2000/svg" xmlns:xlink="http://www.w3.org/1999/xlink" x="0px" y="0px"
	 viewBox="0 0 181.41 24.85" style="enable-background:new 0 0 181.41 24.85;" xml:space="preserve">
<style type="text/css">
	.st0{fill:url(#SVGID_1_);}
	.st1{fill:url(#SVGID_2_);}
</style>
<path d="M49.45,20.87c-2.06,2.66-4.89,3.98-8.49,3.98c-3.04,0-5.53-0.96-7.47-2.88c-1.94-1.92-2.91-4.35-2.91-7.29
	c0-1.82,0.45-3.49,1.35-5.03c0.9-1.54,2.14-2.74,3.73-3.62c1.59-0.87,3.31-1.31,5.15-1.31s3.49,0.35,4.95,1.06s2.68,1.74,3.66,3.11
	l-1.73,1.34c-1.82-2.2-4.06-3.3-6.73-3.3c-2.18,0-4.07,0.77-5.65,2.31c-1.58,1.54-2.37,3.42-2.37,5.65c0,2.23,0.77,4.09,2.32,5.58
	s3.55,2.24,6.01,2.24c2.46,0,4.6-1.06,6.42-3.17L49.45,20.87z"/>
<path d="M69.44,7.4h-4.19v16.98h-2.28V7.4h-4.22V5.2h10.69V7.4z"/>
<path d="M96.56,24.38h-2.38l-2.96-6.42H83.3l-2.94,6.42h-2.49l9.07-19.94h0.68L96.56,24.38z M90.2,15.68l-2.91-6.47l-2.94,6.47H90.2
	z"/>
<path d="M122.58,5.2l-8.36,19.65h-0.6L105.39,5.2h2.41l6.13,14.75l6.24-14.75H122.58z"/>
<path d="M135.14,24.38h-2.25V5.2h2.25V24.38z"/>
<path d="M159.82,16.73c0,1.94-0.2,3.43-0.59,4.47c-0.39,1.04-1.09,1.91-2.1,2.61c-1,0.7-2.18,1.05-3.52,1.05
	c-1.07,0-2.03-0.17-2.88-0.51c-0.86-0.34-1.57-0.82-2.14-1.44c-0.57-0.62-0.97-1.31-1.22-2.07c-0.25-0.76-0.37-2.13-0.37-4.1V5.2
	h2.25v11.53c0,1.24,0.04,2.14,0.1,2.69s0.27,1.08,0.6,1.6s0.81,0.93,1.43,1.23c0.62,0.31,1.32,0.46,2.11,0.46
	c0.94,0,1.76-0.27,2.45-0.83c0.69-0.55,1.13-1.19,1.34-1.91c0.2-0.72,0.3-1.8,0.3-3.24V5.2h2.23V16.73z"/>
<path d="M179.34,9.42c-0.7-0.94-1.29-1.58-1.78-1.9c-0.49-0.32-1.06-0.48-1.72-0.48c-0.65,0-1.21,0.21-1.65,0.63
	c-0.45,0.42-0.67,0.96-0.67,1.61s0.21,1.23,0.63,1.72c0.42,0.49,1.38,1.29,2.9,2.4c1.51,1.11,2.62,2.15,3.31,3.13
	c0.7,0.98,1.05,2.01,1.05,3.09c0,1.42-0.55,2.64-1.64,3.68c-1.09,1.04-2.36,1.56-3.81,1.56c-2.55,0-4.55-1.42-6-4.27l1.91-1.1
	c1.14,2.11,2.41,3.17,3.83,3.17c0.91,0,1.69-0.29,2.33-0.86s0.97-1.25,0.97-2.02s-0.27-1.5-0.81-2.19c-0.54-0.69-1.48-1.54-2.8-2.54
	c-1.33-1-2.24-1.77-2.74-2.29c-0.5-0.52-0.86-1.08-1.09-1.68c-0.23-0.59-0.34-1.19-0.34-1.78c0-1.28,0.44-2.35,1.32-3.24
	c0.88-0.88,2.02-1.32,3.42-1.32c1.08,0,2.03,0.27,2.83,0.83s1.59,1.37,2.36,2.45L179.34,9.42z"/>
<path d="M17.67,12.98c0.13,0.59,0.2,1.21,0.2,1.86c0,2.24-0.76,4.1-2.27,5.58c-1.51,1.49-3.36,2.23-5.54,2.23
	c-2.11,0-3.93-0.76-5.45-2.28S2.33,17,2.33,14.81s0.74-4.05,2.21-5.58c1.48-1.53,3.31-2.29,5.52-2.29c0.42,0,0.83,0.04,1.23,0.1
	l1.39-1.97c-0.86-0.22-1.76-0.33-2.7-0.33c-1.78,0-3.45,0.45-4.99,1.34C3.45,6.96,2.23,8.18,1.34,9.75C0.45,11.31,0,13.01,0,14.83
	c0,1.83,0.45,3.51,1.34,5.06c0.89,1.55,2.12,2.76,3.69,3.64c1.57,0.88,3.27,1.32,5.1,1.32c1.83,0,3.52-0.45,5.07-1.34
	c1.55-0.89,2.78-2.11,3.67-3.67s1.34-3.25,1.34-5.07c0-1.47-0.3-2.84-0.89-4.13L17.67,12.98z"/>
<g>
	
		<linearGradient id="SVGID_1_" gradientUnits="userSpaceOnUse" x1="21.9718" y1="140.3611" x2="12.4746" y2="130.3053" gradientTransform="matrix(1 0 0 -1 0 140.5253)">
		<stop  offset="3.140703e-04" style="stop-color:#2E3192"/>
		<stop  offset="1" style="stop-color:#FF0000"/>
	</linearGradient>
	<polygon class="st0" points="19.17,0 12.01,8.08 17.46,8.08 	"/>
	
		<linearGradient id="SVGID_2_" gradientUnits="userSpaceOnUse" x1="23.1144" y1="139.282" x2="13.6172" y2="129.2262" gradientTransform="matrix(1 0 0 -1 0 140.5253)">
		<stop  offset="3.140703e-04" style="stop-color:#2E3192"/>
		<stop  offset="1" style="stop-color:#FF0000"/>
	</linearGradient>
	<polygon class="st1" points="13.44,14.62 20.59,6.54 15.16,6.54 	"/>
</g>
</svg>
