<svg width="23" height="18" viewBox="0 0 23 18" fill="none" xmlns="http://www.w3.org/2000/svg">
<path d="M14.5493 15.7548C14.5493 15.3112 14.6848 14.8775 14.9386 14.5086C15.1925 14.1398 15.5533 13.8523 15.9754 13.6825C16.3975 13.5128 16.8621 13.4683 17.3102 13.5549C17.7583 13.6414 18.1699 13.8551 18.493 14.1687C18.8161 14.4824 19.0361 14.8821 19.1253 15.3172C19.2144 15.7523 19.1687 16.2033 18.9938 16.6131C18.819 17.023 18.5229 17.3733 18.1429 17.6198C17.763 17.8662 17.3164 17.9978 16.8595 17.9978C16.2468 17.9978 15.6592 17.7614 15.226 17.3408C14.7927 16.9202 14.5493 16.3497 14.5493 15.7548ZM15.9354 15.7548C15.9354 15.9322 15.9896 16.1057 16.0912 16.2532C16.1927 16.4008 16.337 16.5158 16.5059 16.5837C16.6747 16.6516 16.8605 16.6693 17.0398 16.6347C17.219 16.6001 17.3837 16.5147 17.5129 16.3892C17.6421 16.2637 17.7301 16.1039 17.7658 15.9298C17.8015 15.7558 17.7832 15.5754 17.7132 15.4114C17.6433 15.2475 17.5248 15.1074 17.3729 15.0088C17.2209 14.9102 17.0422 14.8576 16.8595 14.8576C16.6152 14.8588 16.3814 14.9538 16.2091 15.1219C16.0368 15.2901 15.94 15.5176 15.94 15.7548H15.9354Z" fill="black"/>
<path d="M8.72314 15.7548C8.72314 15.3112 8.85863 14.8775 9.11248 14.5086C9.36632 14.1398 9.72712 13.8523 10.1492 13.6825C10.5714 13.5128 11.0359 13.4683 11.484 13.5549C11.9321 13.6414 12.3438 13.8551 12.6668 14.1687C12.9899 14.4824 13.21 14.8821 13.2991 15.3172C13.3882 15.7523 13.3425 16.2033 13.1676 16.6131C12.9928 17.023 12.6967 17.3733 12.3168 17.6198C11.9369 17.8662 11.4902 17.9978 11.0333 17.9978C10.4206 17.9978 9.83301 17.7614 9.39977 17.3408C8.96653 16.9202 8.72314 16.3497 8.72314 15.7548ZM10.1092 15.7548C10.1092 15.9322 10.1634 16.1057 10.265 16.2532C10.3665 16.4008 10.5108 16.5158 10.6797 16.5837C10.8485 16.6516 11.0343 16.6693 11.2136 16.6347C11.3928 16.6001 11.5575 16.5147 11.6867 16.3892C11.816 16.2637 11.904 16.1039 11.9396 15.9298C11.9753 15.7558 11.957 15.5754 11.887 15.4114C11.8171 15.2475 11.6987 15.1074 11.5467 15.0088C11.3947 14.9102 11.2161 14.8576 11.0333 14.8576C10.7886 14.8582 10.5542 14.953 10.3814 15.1212C10.2086 15.2894 10.1116 15.5172 10.1116 15.7548H10.1092Z" fill="black"/>
<path d="M8.34431 12.2721H19.4192C19.5622 12.2717 19.7016 12.2284 19.8182 12.1481C19.9349 12.0678 20.0231 11.9544 20.0707 11.8235L22.9561 4.19732C22.993 4.09597 23.0044 3.98753 22.9892 3.88105C22.9741 3.77456 22.9329 3.67314 22.8691 3.58528C22.8053 3.49743 22.7208 3.42571 22.6226 3.3761C22.5244 3.32649 22.4153 3.30042 22.3046 3.30012H8.8849C8.70109 3.30012 8.52481 3.37101 8.39484 3.4972C8.26486 3.6234 8.19185 3.79455 8.19185 3.97302C8.19185 4.15148 8.26486 4.32264 8.39484 4.44883C8.52481 4.57502 8.70109 4.64591 8.8849 4.64591H21.309L18.9341 10.9263H8.84793L5.31338 0.464976C5.26755 0.330122 5.17896 0.21281 5.06028 0.129814C4.9416 0.0468192 4.79893 0.00241057 4.65268 0.00293427H0.693049C0.509241 0.00293427 0.332957 0.0738247 0.202985 0.200017C0.0730134 0.32621 0 0.497368 0 0.675831C0 0.854295 0.0730134 1.02545 0.202985 1.15165C0.332957 1.27784 0.509241 1.34873 0.693049 1.34873H4.1583L7.69516 11.8078C7.73996 11.9413 7.82663 12.0578 7.94304 12.141C8.05944 12.2243 8.19975 12.2701 8.34431 12.2721Z" fill="black"/>
</svg>
