<svg width="94" height="14" viewBox="0 0 94 14" fill="none" xmlns="http://www.w3.org/2000/svg">
<path fill-rule="evenodd" clip-rule="evenodd" d="M7.00014 11.2246L3.33764 13.6663C3.1075 13.8197 2.80424 13.6286 2.84336 13.3548L3.46073 9.03317L0.373866 5.9463C0.187406 5.75984 0.293842 5.44054 0.554886 5.40325L4.85686 4.78868L6.70601 0.473975C6.81684 0.215381 7.18344 0.215381 7.29427 0.473975L9.14343 4.78868L13.4454 5.40325C13.7064 5.44054 13.8129 5.75984 13.6264 5.9463L10.5396 9.03317L11.1569 13.3548C11.196 13.6286 10.8928 13.8197 10.6626 13.6663L7.00014 11.2246Z" fill="#EEB211"/>
<path fill-rule="evenodd" clip-rule="evenodd" d="M27.0001 11.2246L23.3376 13.6663C23.1075 13.8197 22.8042 13.6286 22.8434 13.3548L23.4607 9.03317L20.3739 5.9463C20.1874 5.75984 20.2938 5.44054 20.5549 5.40325L24.8569 4.78868L26.706 0.473975C26.8168 0.215381 27.1834 0.215381 27.2943 0.473975L29.1434 4.78868L33.4454 5.40325C33.7064 5.44054 33.8129 5.75984 33.6264 5.9463L30.5396 9.03317L31.1569 13.3548C31.196 13.6286 30.8928 13.8197 30.6626 13.6663L27.0001 11.2246Z" fill="#EEB211"/>
<path fill-rule="evenodd" clip-rule="evenodd" d="M47.0001 11.2246L43.3376 13.6663C43.1075 13.8197 42.8042 13.6286 42.8434 13.3548L43.4607 9.03317L40.3739 5.9463C40.1874 5.75984 40.2938 5.44054 40.5549 5.40325L44.8569 4.78868L46.706 0.473975C46.8168 0.215381 47.1834 0.215381 47.2943 0.473975L49.1434 4.78868L53.4454 5.40325C53.7064 5.44054 53.8129 5.75984 53.6264 5.9463L50.5396 9.03317L51.1569 13.3548C51.196 13.6286 50.8928 13.8197 50.6626 13.6663L47.0001 11.2246Z" fill="#EEB211"/>
<path fill-rule="evenodd" clip-rule="evenodd" d="M67.0001 11.2246L63.3376 13.6663C63.1075 13.8197 62.8042 13.6286 62.8434 13.3548L63.4607 9.03317L60.3739 5.9463C60.1874 5.75984 60.2938 5.44054 60.5549 5.40325L64.8569 4.78868L66.706 0.473975C66.8168 0.215381 67.1834 0.215381 67.2943 0.473975L69.1434 4.78868L73.4454 5.40325C73.7064 5.44054 73.8129 5.75984 73.6264 5.9463L70.5396 9.03317L71.1569 13.3548C71.196 13.6286 70.8928 13.8197 70.6626 13.6663L67.0001 11.2246Z" fill="#EEB211"/>
<path fill-rule="evenodd" clip-rule="evenodd" d="M87.0001 11.2246L83.3376 13.6663C83.1075 13.8197 82.8042 13.6286 82.8434 13.3548L83.4607 9.03317L80.3739 5.9463C80.1874 5.75984 80.2938 5.44054 80.5549 5.40325L84.8569 4.78868L86.706 0.473975C86.8168 0.215381 87.1834 0.215381 87.2943 0.473975L89.1434 4.78868L93.4454 5.40325C93.7064 5.44054 93.8129 5.75984 93.6264 5.9463L90.5396 9.03317L91.1569 13.3548C91.196 13.6286 90.8928 13.8197 90.6626 13.6663L87.0001 11.2246Z" fill="#EEB211"/>
</svg>
