<svg width="19" height="20" viewBox="0 0 19 20" fill="none" xmlns="http://www.w3.org/2000/svg">
<g clip-path="url(#clip0_201_564)">
<path d="M18.7825 18.7015L13.1846 13.002C14.5072 11.5514 15.2315 9.63861 15.2076 7.65947C15.1837 5.68034 14.4134 3.7863 13.0562 2.36924C11.699 0.952178 9.85871 0.120555 7.91609 0.0464316C5.97347 -0.0276922 4.0772 0.661353 2.61964 1.97101C1.16207 3.28067 0.254778 5.1107 0.0854513 7.08246C-0.0838756 9.05422 0.497733 11.0168 1.70995 12.5641C2.92217 14.1115 4.67221 15.1251 6.59798 15.3954C8.52376 15.6656 10.4779 15.1718 12.056 14.016L17.699 19.7759C17.7673 19.8511 17.8498 19.9114 17.9415 19.9534C18.0332 19.9954 18.1323 20.0181 18.2329 20.0201C18.3334 20.0222 18.4333 20.0036 18.5267 19.9654C18.62 19.9273 18.7047 19.8703 18.7759 19.798C18.8471 19.7257 18.9033 19.6395 18.941 19.5446C18.9788 19.4497 18.9973 19.348 18.9955 19.2457C18.9938 19.1433 18.9718 19.0423 18.9308 18.9488C18.8898 18.8553 18.8308 18.7712 18.7571 18.7015H18.7825ZM1.49231 7.74773C1.49175 6.51625 1.84996 5.31228 2.52158 4.2881C3.1932 3.26393 4.14808 2.46559 5.26542 1.99406C6.38276 1.52253 7.61233 1.399 8.79863 1.63911C9.98493 1.87922 11.0747 2.47218 11.9299 3.34297C12.7852 4.21376 13.3675 5.32324 13.6034 6.53109C13.8392 7.73893 13.7179 8.99085 13.2548 10.1285C12.7916 11.2661 12.0075 12.2383 11.0016 12.9221C9.99572 13.606 8.81321 13.9706 7.6037 13.9701C5.98355 13.9678 4.43041 13.3115 3.28478 12.1451C2.13916 10.9787 1.49455 9.3973 1.49231 7.74773Z" fill="white"/>
</g>
<defs>
<clipPath id="clip0_201_564">
<rect width="19" height="20" fill="white"/>
</clipPath>
</defs>
</svg>
