<svg width="16" height="10" viewBox="0 0 16 10" fill="none" xmlns="http://www.w3.org/2000/svg">
<path d="M8.83691 9.546C8.61291 9.546 8.43091 9.476 8.29091 9.336C8.15091 9.168 8.08091 8.972 8.08091 8.748C8.08091 8.552 8.12291 8.37 8.20691 8.202L10.8949 1.23C11.0349 0.949998 11.2029 0.711998 11.3989 0.515999C11.5949 0.291999 11.8889 0.179998 12.2809 0.179998H14.4229C14.6749 0.179998 14.8709 0.263998 15.0109 0.431998C15.1509 0.599999 15.1929 0.823999 15.1369 1.104L14.0449 8.202C14.0169 8.538 13.8909 8.846 13.6669 9.126C13.4429 9.406 13.1209 9.546 12.7009 9.546H8.83691ZM0.856906 9.546C0.632906 9.546 0.450906 9.476 0.310906 9.336C0.170906 9.168 0.100906 8.972 0.100906 8.748C0.100906 8.552 0.142906 8.37 0.226906 8.202L2.91491 1.23C3.05491 0.949998 3.22291 0.711998 3.41891 0.515999C3.61491 0.291999 3.90891 0.179998 4.30091 0.179998H6.44291C6.66691 0.179998 6.84891 0.263998 6.98891 0.431998C7.15691 0.599999 7.21291 0.823999 7.15691 1.104L6.06491 8.202C6.03691 8.538 5.91091 8.846 5.68691 9.126C5.46291 9.406 5.14091 9.546 4.72091 9.546H0.856906Z" fill="#C41239"/>
</svg>
